<svg height="23" width="22" xmlns="http://www.w3.org/2000/svg" viewBox="0 0 22 23"><path fill="#bdbcbc" fill-rule="evenodd" d="M10.8 22.12C4.83 22.12-.02 17.28-.02 11.3-.02 5.33 4.83.48 10.8.48c5.98 0 10.82 4.85 10.82 10.82 0 5.98-4.84 10.82-10.82 10.82zm6-10.59a6.178 6.178 0 0 0-7.23-6.09 3.593 3.593 0 0 0-5.5 3.04c0 .66.18 1.28.5 1.81-.09.4-.13.82-.13 1.24 0 3.42 2.77 6.18 6.18 6.18.39 0 .77-.03 1.13-.1.51.27 1.09.43 1.7.43 1.98 0 3.58-1.61 3.58-3.59 0-.57-.13-1.11-.37-1.59.09-.43.14-.87.14-1.33zm-4.26 3.91c-.55.22-1.19.34-1.93.34-.89 0-1.64-.16-2.22-.47-.41-.22-.76-.52-1.02-.9s-.39-.75-.39-1.11c0-.23.09-.43.26-.59.17-.16.38-.24.64-.24.21 0 .4.06.55.19.14.12.26.3.36.53.11.25.23.46.35.63.12.16.3.29.52.4.23.11.53.16.9.16.51 0 .93-.11 1.24-.32.31-.21.46-.47.46-.78 0-.24-.08-.43-.24-.58-.16-.16-.39-.28-.66-.37-.28-.08-.66-.18-1.13-.28-.64-.13-1.19-.3-1.62-.48-.44-.19-.8-.45-1.06-.78-.27-.33-.4-.75-.4-1.24 0-.46.14-.88.42-1.25.27-.36.68-.64 1.2-.83.51-.19 1.12-.29 1.81-.29.55 0 1.04.07 1.44.19.41.13.75.3 1.02.51.28.21.48.44.6.68.13.24.2.47.2.7 0 .23-.09.43-.25.6-.17.18-.39.27-.64.27-.23 0-.41-.06-.53-.17-.12-.1-.24-.26-.37-.49-.16-.29-.34-.52-.55-.69-.21-.16-.56-.24-1.04-.24-.44 0-.8.09-1.07.27-.26.17-.38.36-.38.59 0 .14.04.26.12.36.09.11.21.2.37.28.16.08.33.15.5.19.17.05.46.12.85.21.5.11.96.23 1.37.36.41.13.77.29 1.06.48.29.19.53.44.69.74.17.3.26.66.26 1.09 0 .51-.15.97-.44 1.38-.28.4-.71.72-1.25.95z"/></svg>