<svg height="23" width="23" xmlns="http://www.w3.org/2000/svg" viewBox="0 0 23 23"><path fill="#bdbcbc" fill-rule="evenodd" d="M11.37.48C5.4.48.55 5.33.55 11.3c0 5.98 4.85 10.82 10.82 10.82 5.98 0 10.83-4.84 10.83-10.82C22.2 5.33 17.35.48 11.37.48zm5.98 10.95c-.13.66-.46 1.35-.98 2.07-1.13 1.38-2.5 2.29-4.11 2.73h-.03c-1.67.45-3.34.41-5-.11-1.46-.55-2.64-1.43-3.53-2.65.89.7 1.7 1.05 2.46 1.05l.02-.01c1.25.08 2.32-.31 3.2-1.17.01-.01.01-.01.01-.02l-.02-.03c-.51.02-.86-.13-1.05-.47-.06-.22 0-.41.16-.58.09-.1.23-.2.41-.29-.9.03-1.52-.28-1.88-.94.27-.29.62-.43 1.04-.4v-.02c-1.07-.29-1.63-.81-1.68-1.57.27-.08.56-.12.85-.12v-.01c-.83-.48-1.25-1.13-1.25-1.94.77.24 1.53.54 2.27.91.69.28 1.28.58 1.79.9.43.24.78.54 1.08.89l.02-.01.07-.06c.21-.78.56-1.56 1.06-2.32l.01-.03c.19-.28.44-.58.75-.92.15-.15.33-.29.52-.42.04.03-.02.16-.17.41.41-.35.81-.53 1.18-.54.08.08-.07.24-.44.47.3-.11.63-.18.98-.23.16.02.21.1.17.24-.13.17-.55.33-1.26.49h-.01l.02.05c.78-.02 1.46.22 2.04.74.01.01.02.02.03.02.69.66 1.08 1.39 1.19 2.19.61.22 1.22.22 1.85-.02-.17.46-.7.73-1.59.83-.01-.01-.01-.01-.01 0v.08c.82.16 1.37.19 1.65.1l.01.01c-.38.49-.99.72-1.83.7z"/></svg>