<svg id="Слой_1" xmlns="http://www.w3.org/2000/svg" viewBox="0 0 960 560"><style>.st0{stroke:#ea3413;stroke-width:5;stroke-miterlimit:10}</style><path class="st0" d="M207 277c0 146.1 118.9 265 265 265s265-118.9 265-265S618.1 12 472 12 207 130.9 207 277zm508.6 0c0 134.3-109.2 243.6-243.6 243.6S228.4 411.3 228.4 277 337.7 33.4 472 33.4 715.6 142.7 715.6 277zm0 0"/><path class="st0" d="M384 299.4c-2.1 2.1-3.1 4.9-3.1 7.6 0 2.7 1.1 5.5 3.1 7.6 4.2 4.2 10.9 4.2 15.2 0l72.9-72.9 72.9 72.9c4.2 4.2 10.9 4.2 15.2 0 4.2-4.2 4.2-10.9 0-15.2L479.6 219c-4.2-4.2-10.9-4.2-15.2 0L384 299.4zm0 0"/></svg>