<svg id="Слой_1" xmlns="http://www.w3.org/2000/svg" x="20" y="20" viewBox="0 0 960 560"><style>.st0{stroke:#fff;stroke-width:5;stroke-miterlimit:10}</style><path class="st0" d="M502.8 9C356.2 9 237 128.1 237 274.5S356.2 540 502.8 540s265.8-119.1 265.8-265.5S649.4 9 502.8 9zm0 509.5c-134.7 0-244.3-109.4-244.3-244s109.6-244 244.3-244 244.3 109.4 244.3 244-109.6 244-244.3 244z"/><path class="st0" d="M480.3 186.3c-2.1-2.1-4.9-3.1-7.6-3.1-2.7 0-5.5 1.1-7.6 3.1-4.2 4.2-4.2 11 0 15.2l73.1 73-73.1 73c-4.2 4.2-4.2 11 0 15.2 4.2 4.2 11 4.2 15.2 0l80.7-80.6c4.2-4.2 4.2-11 0-15.2l-80.7-80.6z"/></svg>