<svg id="Слой_1" xmlns="http://www.w3.org/2000/svg" viewBox="0 0 960 560"><style>.st0{stroke:#ea3413;stroke-width:5;stroke-miterlimit:10}</style><path class="st0" d="M768.3 274.5c0-146.6-119.1-265.8-265.5-265.8S237.3 127.9 237.3 274.5s119.1 265.8 265.5 265.8 265.5-119.2 265.5-265.8zm-509.5 0c0-134.7 109.4-244.3 244-244.3s244 109.6 244 244.3-109.4 244.3-244 244.3-244-109.6-244-244.3zm0 0"/><path class="st0" d="M591 252c2.1-2.1 3.1-4.9 3.1-7.6 0-2.7-1.1-5.5-3.1-7.6-4.2-4.2-11-4.2-15.2 0l-73 73.1-73-73.1c-4.2-4.2-11-4.2-15.2 0-4.2 4.2-4.2 11 0 15.2l80.6 80.7c4.2 4.2 11 4.2 15.2 0L591 252zm0 0"/></svg>